<svg width="24" height="24" viewBox="0 0 24 24" fill="none" xmlns="http://www.w3.org/2000/svg">
<path d="M19 6.25H5C3.48122 6.25 2.25 7.48122 2.25 9V18C2.25 19.5188 3.48122 20.75 5 20.75H19C20.5188 20.75 21.75 19.5188 21.75 18V9C21.75 7.48122 20.5188 6.25 19 6.25Z" fill="#2563EB" stroke="white" stroke-width="1.5" stroke-linecap="round" stroke-linejoin="round"/>
<path d="M8 7V5C8 4.46957 8.21071 3.96086 8.58579 3.58579C8.96086 3.21071 9.46957 3 10 3H14C14.5304 3 15.0391 3.21071 15.4142 3.58579C15.7893 3.96086 16 4.46957 16 5V7" stroke="#2563EB" stroke-width="1.5" stroke-linecap="round" stroke-linejoin="round"/>
<path d="M12 12V12.01" stroke="white" stroke-width="2" stroke-linecap="round" stroke-linejoin="round"/>
<path d="M3 13C5.79158 14.4067 8.87403 15.1394 12 15.1394C15.126 15.1394 18.2084 14.4067 21 13" fill="#2563EB"/>
<path d="M3 13C5.79158 14.4067 8.87403 15.1394 12 15.1394C15.126 15.1394 18.2084 14.4067 21 13" stroke="#F8FAFC" stroke-width="1.5" stroke-linecap="round" stroke-linejoin="round"/>
</svg>
