<svg width="33" height="32" viewBox="0 0 33 32" fill="none" xmlns="http://www.w3.org/2000/svg">
<path d="M9.83327 24C8.16964 24 6.57415 23.3679 5.39779 22.2426C4.22142 21.1174 3.56055 19.5913 3.56055 18C3.56055 16.4087 4.22142 14.8826 5.39779 13.7574C6.57415 12.6321 8.16964 12 9.83327 12C10.2262 10.2496 11.3756 8.71131 13.0287 7.72362C13.8473 7.23456 14.7648 6.8954 15.729 6.72548C16.6931 6.55557 17.6851 6.55824 18.6481 6.73333C19.6111 6.90843 20.5264 7.25252 21.3417 7.74597C22.1569 8.23942 22.8562 8.87256 23.3996 9.60924C23.943 10.3459 24.3199 11.1717 24.5087 12.0395C24.6975 12.9072 24.6945 13.7999 24.4999 14.6667H25.8333C27.071 14.6667 28.2579 15.1583 29.1331 16.0335C30.0083 16.9087 30.4999 18.0957 30.4999 19.3333C30.4999 20.571 30.0083 21.758 29.1331 22.6332C28.2579 23.5083 27.071 24 25.8333 24H24.4999" stroke="#2563EB" stroke-width="2" stroke-linecap="round" stroke-linejoin="round"/>
<path d="M12.5 20L16.5 16L20.5 20" stroke="#2563EB" stroke-width="2" stroke-linecap="round" stroke-linejoin="round"/>
<path d="M16.5 16V28" stroke="#2563EB" stroke-width="2" stroke-linecap="round" stroke-linejoin="round"/>
</svg>
