<svg width="22" height="22" viewBox="0 0 22 22" fill="none" xmlns="http://www.w3.org/2000/svg">
<path d="M8.25002 3.66666H4.58335C4.07709 3.66666 3.66669 4.07706 3.66669 4.58332V8.24999C3.66669 8.75625 4.07709 9.16666 4.58335 9.16666H8.25002C8.75628 9.16666 9.16669 8.75625 9.16669 8.24999V4.58332C9.16669 4.07706 8.75628 3.66666 8.25002 3.66666Z" stroke="#64748B" stroke-width="1.5" stroke-linecap="round" stroke-linejoin="round"/>
<path d="M17.4167 3.66666H13.75C13.2438 3.66666 12.8334 4.07706 12.8334 4.58332V8.24999C12.8334 8.75625 13.2438 9.16666 13.75 9.16666H17.4167C17.9229 9.16666 18.3334 8.75625 18.3334 8.24999V4.58332C18.3334 4.07706 17.9229 3.66666 17.4167 3.66666Z" stroke="#64748B" stroke-width="1.5" stroke-linecap="round" stroke-linejoin="round"/>
<path d="M8.25002 12.8333H4.58335C4.07709 12.8333 3.66669 13.2437 3.66669 13.75V17.4167C3.66669 17.9229 4.07709 18.3333 4.58335 18.3333H8.25002C8.75628 18.3333 9.16669 17.9229 9.16669 17.4167V13.75C9.16669 13.2437 8.75628 12.8333 8.25002 12.8333Z" stroke="#64748B" stroke-width="1.5" stroke-linecap="round" stroke-linejoin="round"/>
<path d="M17.4167 12.8333H13.75C13.2438 12.8333 12.8334 13.2437 12.8334 13.75V17.4167C12.8334 17.9229 13.2438 18.3333 13.75 18.3333H17.4167C17.9229 18.3333 18.3334 17.9229 18.3334 17.4167V13.75C18.3334 13.2437 17.9229 12.8333 17.4167 12.8333Z" stroke="#64748B" stroke-width="1.5" stroke-linecap="round" stroke-linejoin="round"/>
</svg>
